<mxfile host="app.diagrams.net" modified="2024-03-05T11:46:56.549Z" agent="Mozilla/5.0 (Windows NT 10.0; Win64; x64) AppleWebKit/537.36 (KHTML, like Gecko) Chrome/121.0.0.0 Safari/537.36" etag="nJiU1jlpp2kWMNB9Bj5n" version="23.1.4" type="device">
  <diagram name="Page-1" id="kztQ3FXXMszru7sDt-oM">
    <mxGraphModel dx="866" dy="1554" grid="1" gridSize="10" guides="1" tooltips="1" connect="1" arrows="1" fold="1" page="1" pageScale="1" pageWidth="850" pageHeight="1100" math="0" shadow="0">
      <root>
        <mxCell id="0" />
        <mxCell id="1" parent="0" />
        <mxCell id="pofoEP09ogSjgYgJOtZH-1" value="Motor stepper pentru axa X" style="shape=hexagon;perimeter=hexagonPerimeter2;whiteSpace=wrap;html=1;fixedSize=1;" vertex="1" parent="1">
          <mxGeometry x="500" y="-720" width="120" height="80" as="geometry" />
        </mxCell>
        <mxCell id="pofoEP09ogSjgYgJOtZH-2" value="&lt;br&gt;&lt;span style=&quot;color: rgb(0, 0, 0); font-family: Helvetica; font-size: 12px; font-style: normal; font-variant-ligatures: normal; font-variant-caps: normal; font-weight: 400; letter-spacing: normal; orphans: 2; text-align: center; text-indent: 0px; text-transform: none; widows: 2; word-spacing: 0px; -webkit-text-stroke-width: 0px; background-color: rgb(251, 251, 251); text-decoration-thickness: initial; text-decoration-style: initial; text-decoration-color: initial; float: none; display: inline !important;&quot;&gt;Motor stepper pentru axa Y&lt;/span&gt;&lt;br&gt;" style="shape=hexagon;perimeter=hexagonPerimeter2;whiteSpace=wrap;html=1;fixedSize=1;" vertex="1" parent="1">
          <mxGeometry x="500" y="-640" width="120" height="80" as="geometry" />
        </mxCell>
        <mxCell id="pofoEP09ogSjgYgJOtZH-3" value="Electromagnet pentru axa Z" style="shape=hexagon;perimeter=hexagonPerimeter2;whiteSpace=wrap;html=1;fixedSize=1;" vertex="1" parent="1">
          <mxGeometry x="500" y="-560" width="120" height="80" as="geometry" />
        </mxCell>
        <mxCell id="pofoEP09ogSjgYgJOtZH-4" value="Tastatura 4x4" style="shape=hexagon;perimeter=hexagonPerimeter2;whiteSpace=wrap;html=1;fixedSize=1;" vertex="1" parent="1">
          <mxGeometry x="40" y="-640" width="120" height="80" as="geometry" />
        </mxCell>
        <mxCell id="pofoEP09ogSjgYgJOtZH-5" value="Arduino MEGA" style="ellipse;whiteSpace=wrap;html=1;aspect=fixed;" vertex="1" parent="1">
          <mxGeometry x="265" y="-680" width="160" height="160" as="geometry" />
        </mxCell>
        <mxCell id="pofoEP09ogSjgYgJOtZH-9" value="" style="endArrow=none;html=1;rounded=0;exitX=0;exitY=0.5;exitDx=0;exitDy=0;entryX=1;entryY=0.5;entryDx=0;entryDy=0;" edge="1" parent="1" source="pofoEP09ogSjgYgJOtZH-2" target="pofoEP09ogSjgYgJOtZH-5">
          <mxGeometry width="50" height="50" relative="1" as="geometry">
            <mxPoint x="190" y="-565" as="sourcePoint" />
            <mxPoint x="240" y="-615" as="targetPoint" />
          </mxGeometry>
        </mxCell>
        <mxCell id="pofoEP09ogSjgYgJOtZH-12" value="Arduino IDE" style="rounded=1;whiteSpace=wrap;html=1;" vertex="1" parent="1">
          <mxGeometry x="277.5" y="-490" width="135" height="30" as="geometry" />
        </mxCell>
        <mxCell id="pofoEP09ogSjgYgJOtZH-14" value="" style="endArrow=none;html=1;rounded=0;entryX=1;entryY=0.5;entryDx=0;entryDy=0;exitX=0;exitY=0.5;exitDx=0;exitDy=0;" edge="1" parent="1" source="pofoEP09ogSjgYgJOtZH-5" target="pofoEP09ogSjgYgJOtZH-4">
          <mxGeometry width="50" height="50" relative="1" as="geometry">
            <mxPoint x="400" y="-540" as="sourcePoint" />
            <mxPoint x="450" y="-590" as="targetPoint" />
          </mxGeometry>
        </mxCell>
        <mxCell id="pofoEP09ogSjgYgJOtZH-15" value="" style="endArrow=none;dashed=1;html=1;dashPattern=1 3;strokeWidth=2;rounded=0;exitX=0.5;exitY=0;exitDx=0;exitDy=0;entryX=0.5;entryY=1;entryDx=0;entryDy=0;" edge="1" parent="1" source="pofoEP09ogSjgYgJOtZH-12" target="pofoEP09ogSjgYgJOtZH-5">
          <mxGeometry width="50" height="50" relative="1" as="geometry">
            <mxPoint x="400" y="-540" as="sourcePoint" />
            <mxPoint x="450" y="-590" as="targetPoint" />
          </mxGeometry>
        </mxCell>
        <mxCell id="pofoEP09ogSjgYgJOtZH-20" value="" style="whiteSpace=wrap;html=1;aspect=fixed;" vertex="1" parent="1">
          <mxGeometry x="150" y="-420" width="80" height="80" as="geometry" />
        </mxCell>
        <mxCell id="pofoEP09ogSjgYgJOtZH-21" value="Utilizator" style="shape=umlActor;verticalLabelPosition=bottom;verticalAlign=top;html=1;outlineConnect=0;" vertex="1" parent="1">
          <mxGeometry x="30" y="-510" width="30" height="65" as="geometry" />
        </mxCell>
        <mxCell id="pofoEP09ogSjgYgJOtZH-23" value="" style="endArrow=classic;html=1;rounded=0;exitX=1;exitY=0.3333333333333333;exitDx=0;exitDy=0;exitPerimeter=0;entryX=0.5;entryY=1;entryDx=0;entryDy=0;" edge="1" parent="1" source="pofoEP09ogSjgYgJOtZH-21" target="pofoEP09ogSjgYgJOtZH-4">
          <mxGeometry width="50" height="50" relative="1" as="geometry">
            <mxPoint x="75" y="-490" as="sourcePoint" />
            <mxPoint x="125" y="-540" as="targetPoint" />
          </mxGeometry>
        </mxCell>
      </root>
    </mxGraphModel>
  </diagram>
</mxfile>
